<svg xmlns="http://www.w3.org/2000/svg" width="2048" height="2048" viewBox="0 0 2048 2048" version="1.1"><path d="M 1102.449 726.839 C 1104.555 733.476, 1106.209 759.156, 1106.693 792.750 C 1106.988 813.237, 1107.547 830, 1107.935 830 C 1108.322 830, 1113.558 827.038, 1119.570 823.418 C 1129.811 817.251, 1137.435 813.318, 1146.213 809.674 C 1149.730 808.214, 1149.901 807.932, 1149.468 804.317 C 1149.216 802.217, 1147.367 793.750, 1145.358 785.500 C 1141.182 768.345, 1139.418 765.344, 1122.544 746.687 C 1121.145 745.140, 1120 743.442, 1120 742.914 C 1120 741.655, 1104.003 725, 1102.795 725 C 1102.284 725, 1102.128 725.828, 1102.449 726.839 M 637 790.487 C 637 790.794, 638.811 794.647, 641.025 799.050 C 645.796 808.539, 649.153 818.815, 651.951 832.500 C 653.075 838, 654.446 844.672, 654.998 847.326 C 656.270 853.451, 656.310 888.742, 655.052 894.307 C 654.531 896.613, 653.349 902.550, 652.427 907.500 C 649.582 922.772, 640.657 945.908, 632.762 958.478 C 627.763 966.436, 617.910 980.187, 614.563 983.876 C 604.078 995.431, 579.056 1014.192, 562.750 1022.724 C 560.138 1024.091, 558.010 1025.500, 558.023 1025.855 C 558.036 1026.210, 563.271 1031.900, 569.656 1038.500 C 576.041 1045.100, 585.988 1055.900, 591.759 1062.500 C 604.142 1076.660, 609.507 1082, 611.350 1082 C 612.091 1082, 613.372 1080.281, 614.197 1078.181 C 615.358 1075.225, 616.990 1073.632, 621.420 1071.132 C 632.178 1065.061, 647.318 1054.600, 653.114 1049.234 C 660.555 1042.345, 667.504 1032.930, 674.771 1019.892 C 686.895 998.140, 693.495 981.937, 699.574 959 C 702.548 947.779, 702.739 946.273, 701.443 944.285 C 700.650 943.067, 700 940.816, 700 939.283 C 700 936.298, 696.215 926.086, 682.477 892 C 677.711 880.175, 672.306 866.450, 670.466 861.500 C 668.626 856.550, 665.970 849.736, 664.564 846.358 C 661.808 839.737, 659 826.813, 659 820.750 C 659 818.688, 658.550 817, 658 817 C 657.450 817, 657 816.531, 657 815.957 C 657 815.384, 655.087 812.406, 652.750 809.341 C 650.413 806.275, 647.923 802.714, 647.217 801.428 C 646.511 800.141, 644.570 798.118, 642.903 796.931 C 641.166 795.694, 640.098 794.188, 640.399 793.402 C 640.689 792.648, 640.042 791.558, 638.963 790.980 C 637.883 790.402, 637 790.180, 637 790.487 M 1761.563 807.934 C 1761.942 809.273, 1763.970 813.812, 1766.070 818.021 C 1772.813 831.534, 1772.500 826.128, 1772.500 929 C 1772.500 1028.752, 1772.553 1027.506, 1767.406 1049.771 C 1762.930 1069.138, 1751.607 1092.905, 1739.190 1109 C 1730.002 1120.909, 1714.045 1136.999, 1704 1144.482 C 1651.427 1183.648, 1581.585 1192.560, 1519.500 1168.024 C 1502.012 1161.113, 1488.655 1152.014, 1472.378 1135.922 C 1466.118 1129.734, 1460.773 1124.894, 1460.501 1125.166 C 1460.228 1125.438, 1463.819 1129.675, 1468.480 1134.581 C 1473.141 1139.486, 1476.965 1144.063, 1476.977 1144.750 C 1476.990 1145.438, 1477.498 1146, 1478.106 1146 C 1478.714 1146, 1480.097 1147.125, 1481.179 1148.500 C 1482.260 1149.875, 1483.709 1151, 1484.398 1151 C 1485.087 1151, 1486.708 1152.125, 1488 1153.500 C 1489.292 1154.875, 1490.843 1156, 1491.446 1156 C 1492.957 1156, 1500.236 1162.097, 1499.548 1162.786 C 1499.242 1163.091, 1497.869 1162.286, 1496.496 1160.996 C 1495.123 1159.707, 1494 1158.941, 1494 1159.296 C 1494 1160.246, 1486.938 1155.286, 1485.392 1153.250 C 1484.416 1151.964, 1484.055 1151.870, 1484.032 1152.896 C 1483.972 1155.499, 1521.165 1192.876, 1523.191 1192.250 C 1523.636 1192.113, 1524 1192.420, 1524 1192.933 C 1524 1194.515, 1549.857 1211.136, 1561.522 1217.053 C 1573.091 1222.921, 1590.306 1228.936, 1603.004 1231.548 C 1615.110 1234.038, 1641.049 1234.514, 1658 1232.558 C 1685.228 1229.415, 1699.180 1225.332, 1723.634 1213.349 C 1738.390 1206.118, 1747.517 1200.073, 1762.594 1187.539 C 1773.988 1178.068, 1779.399 1172.194, 1788.717 1159.182 C 1802.483 1139.956, 1808.079 1126.778, 1811.995 1104.356 C 1816.606 1077.957, 1817.581 1065.346, 1818.552 1019.500 C 1818.844 1005.750, 1819.512 987.525, 1820.037 979 C 1821.302 958.478, 1821.265 906.648, 1819.978 895.974 C 1818.099 880.398, 1812.975 867.645, 1804.637 857.793 C 1802.912 855.754, 1799.475 851.550, 1797 848.451 C 1794.525 845.352, 1790.475 840.435, 1788 837.524 C 1785.525 834.613, 1781.700 829.887, 1779.500 827.023 C 1775.332 821.595, 1771.912 817.586, 1764.984 810 C 1761.682 806.384, 1761.009 805.978, 1761.563 807.934 M 413.500 809.715 C 407.927 810.485, 398.642 813.142, 394.965 815.018 C 390.097 817.501, 385.311 823.104, 384.101 827.737 C 383.330 830.691, 382.369 947.323, 382.904 973.131 C 383 977.754, 383.008 977.765, 387.443 978.881 C 393.561 980.422, 405.662 980.339, 406.691 978.750 C 407.136 978.063, 407.757 954.100, 408.071 925.500 C 408.571 880.034, 408.859 872.839, 410.364 868.237 C 412.310 862.286, 417.203 854.520, 419.580 853.608 C 426.382 850.998, 443.250 856.257, 458.230 865.659 C 460.282 866.947, 462.154 868, 462.390 868 C 462.627 868, 471.901 874.075, 483 881.500 C 494.099 888.925, 503.477 895.008, 503.840 895.017 C 504.203 895.027, 505.560 896.152, 506.855 897.517 C 508.150 898.883, 509.663 900, 510.218 900 C 511.408 900, 515.676 903.359, 524.512 911.250 C 528.052 914.413, 531.396 917, 531.942 917 C 533.133 917, 540.085 907.849, 542.454 903.164 C 548.418 891.366, 548.243 867.158, 542.076 850.867 C 539.064 842.911, 530.920 831.759, 524.681 827.049 C 512.650 817.966, 494.031 811.342, 476.750 809.998 C 464.890 809.076, 419.588 808.873, 413.500 809.715 M 1519.908 816.820 C 1521.053 819.063, 1522.426 823.959, 1522.959 827.699 C 1526.157 850.120, 1526.464 858.986, 1526.554 931.500 C 1526.604 972.200, 1526.987 1008.425, 1527.404 1012 C 1528.856 1024.437, 1534.503 1039.724, 1540.600 1047.719 C 1544.169 1052.399, 1554.926 1059.738, 1561.565 1062.022 C 1564.726 1063.110, 1567.426 1064, 1567.563 1064 C 1567.701 1064, 1567.743 1054.438, 1567.657 1042.750 C 1567.571 1031.063, 1568.116 995.850, 1568.869 964.500 C 1570.215 908.420, 1569.969 887.031, 1567.847 875.835 C 1566.198 867.137, 1562.246 861.309, 1545.950 843.549 C 1542.897 840.222, 1539.747 836.543, 1538.950 835.374 C 1535.510 830.329, 1523.586 816.841, 1520.832 814.881 L 1517.827 812.741 1519.908 816.820 M 986.576 817.250 C 986.377 817.938, 985.651 823, 984.963 828.500 C 982.875 845.178, 986.848 834.616, 923.268 992.500 C 911.972 1020.550, 896.546 1059.025, 888.988 1078 C 876.350 1109.728, 866.005 1135.366, 850.050 1174.500 C 846.687 1182.750, 840.773 1197.423, 836.909 1207.106 C 819.560 1250.579, 805.017 1266.796, 777.031 1273.873 C 769.263 1275.837, 766.052 1275.997, 735.060 1275.965 C 698.344 1275.927, 689.705 1275.072, 680.642 1270.581 C 677.152 1268.851, 674.295 1266.380, 671.750 1262.890 C 669.687 1260.061, 668 1258.418, 668 1259.238 C 668 1264.051, 688.261 1286.513, 707.998 1303.583 C 723.582 1317.060, 733.292 1323.697, 740.914 1326.081 C 760.324 1332.153, 806.102 1332.579, 824.772 1326.861 C 834.096 1324.005, 846.144 1317.575, 851.949 1312.356 C 860.751 1304.442, 869.659 1288.379, 879.043 1263.500 C 881.948 1255.800, 886.786 1243.425, 889.795 1236 C 894.714 1223.863, 900.740 1208.240, 911.972 1178.500 C 918.408 1161.462, 942.701 1104.497, 948.057 1093.887 C 952.118 1085.842, 960.701 1065.530, 969.982 1042 C 990.803 989.214, 998.157 972.131, 1002.108 967.370 C 1003.675 965.481, 1003.576 943.452, 1001.746 886.810 C 1000.198 838.933, 999.622 830.203, 997.768 826.500 C 996.526 824.020, 988.882 816, 987.760 816 C 987.308 816, 986.775 816.563, 986.576 817.250 M 775.592 834.500 C 775.902 836.150, 776.535 838.400, 776.998 839.500 C 777.461 840.600, 780.327 848.700, 783.367 857.500 C 788.511 872.393, 798.521 900.480, 812.767 940 C 816.039 949.075, 819.621 958.525, 820.728 961 C 821.835 963.475, 822.972 966.175, 823.254 967 C 823.710 968.333, 823.829 968.333, 824.319 967 C 827.041 959.609, 832.450 943.847, 833.638 939.847 C 835.376 933.994, 835.334 933.818, 827.278 913.623 C 821.354 898.775, 811.973 879.760, 806.411 871.331 C 804.535 868.487, 803 865.896, 803 865.572 C 803 863.909, 790.923 849.127, 782.500 840.480 C 779.750 837.657, 776.944 834.481, 776.264 833.423 C 775.166 831.714, 775.092 831.833, 775.592 834.500 M 1367 892.493 C 1367 892.803, 1368.346 895.724, 1369.992 898.983 C 1387.770 934.203, 1393.978 980.223, 1386.854 1024 C 1382.170 1052.785, 1366.916 1088.327, 1350.587 1108.500 C 1321.769 1144.103, 1286.606 1166.550, 1244 1176.541 C 1240.425 1177.380, 1235.925 1178.463, 1234 1178.949 C 1225.108 1181.195, 1208.360 1182.237, 1189.377 1181.725 C 1172.272 1181.265, 1167.478 1180.760, 1155.002 1178.104 C 1137.692 1174.419, 1129.255 1171.594, 1114.227 1164.453 C 1092.752 1154.248, 1071.505 1138.519, 1055.194 1120.750 C 1051.858 1117.116, 1050.310 1117.222, 1052.932 1120.904 C 1054.069 1122.502, 1055.004 1124.189, 1055.009 1124.654 C 1055.013 1125.119, 1056.588 1127.157, 1058.509 1129.183 C 1060.429 1131.209, 1062 1133.268, 1062 1133.759 C 1062 1134.250, 1063.180 1135.742, 1064.623 1137.076 C 1066.065 1138.409, 1068.951 1141.750, 1071.036 1144.500 C 1086.008 1164.247, 1130.374 1200.384, 1156.294 1213.943 C 1172.424 1222.381, 1196.738 1229.960, 1214.500 1232.086 C 1227.448 1233.636, 1252.910 1233.612, 1265 1232.038 C 1288.994 1228.914, 1324.481 1218.526, 1341 1209.790 C 1361.218 1199.098, 1374.716 1187.667, 1390.885 1167.546 C 1400.971 1154.994, 1409.293 1142.326, 1415.337 1130.325 C 1418.829 1123.389, 1428 1097.404, 1428 1094.443 C 1428 1093.599, 1429.202 1091.707, 1430.672 1090.237 L 1433.344 1087.565 1431.803 1082.033 C 1430.955 1078.990, 1429.122 1073.350, 1427.728 1069.500 C 1422.124 1054.019, 1420.736 1043.791, 1419.992 1012.500 C 1419.613 996.550, 1418.722 979.675, 1418.013 975 C 1415.904 961.100, 1408.367 943.049, 1401.014 934.292 C 1400.456 933.628, 1399.999 932.728, 1399.999 932.292 C 1399.998 931.856, 1398.986 930.259, 1397.749 928.741 C 1396.512 927.224, 1394.240 924.299, 1392.699 922.241 C 1385.079 912.062, 1376.637 901.798, 1375.536 901.375 C 1374.859 901.115, 1373.275 899.510, 1372.017 897.809 C 1370.758 896.107, 1370.310 895.073, 1371.019 895.512 C 1371.864 896.034, 1372.064 895.913, 1371.599 895.160 C 1370.783 893.840, 1367 891.646, 1367 892.493 M 1182.913 912.397 C 1182.590 912.733, 1179.665 913.480, 1176.413 914.057 C 1173.061 914.653, 1165.539 917.516, 1159.046 920.668 C 1148.726 925.678, 1146.695 927.134, 1138.536 935.364 C 1131.269 942.695, 1128.653 946.180, 1125.297 953 C 1122.997 957.675, 1120.368 964.650, 1119.455 968.500 C 1118.542 972.350, 1117.328 977.162, 1116.757 979.192 C 1115.519 983.591, 1117.244 1006.542, 1119.431 1014.775 C 1125.168 1036.373, 1146.206 1057.998, 1167.881 1064.577 C 1173.886 1066.399, 1180.631 1066.502, 1179.283 1064.750 C 1178.747 1064.055, 1178.367 1056.396, 1178.425 1047.500 C 1178.557 1027.477, 1179.932 1023.223, 1189.255 1013.986 C 1196.776 1006.535, 1203.400 1002.437, 1218.162 996.103 C 1236.789 988.110, 1253.626 984.044, 1268.736 983.889 L 1276 983.814 1276 979.654 C 1276 975.137, 1273.003 963.653, 1270.354 958.020 C 1265.255 947.177, 1253.786 933.761, 1243.691 926.833 C 1236.361 921.802, 1225.267 916.546, 1217.500 914.425 C 1211.514 912.790, 1184.081 911.182, 1182.913 912.397 M 426.081 1067.605 C 412.138 1070.654, 402.839 1077.429, 397.170 1088.668 C 394.279 1094.402, 392.627 1101.160, 389.511 1120 C 384.479 1150.431, 374.047 1167.317, 356.500 1173.432 C 349.135 1175.998, 331.878 1176.558, 318.500 1174.666 C 297.912 1171.753, 288.094 1167.127, 283.326 1158.093 C 282.047 1155.669, 281 1154.224, 281 1154.883 C 281 1155.541, 281.852 1157.749, 282.893 1159.790 C 283.934 1161.830, 284.862 1163.812, 284.955 1164.193 C 285.488 1166.363, 305.420 1188.148, 318.641 1201.009 C 341.219 1222.972, 347.033 1228.127, 351.411 1230.064 C 356.969 1232.522, 373.591 1234.370, 382.500 1233.519 C 399.276 1231.917, 407.108 1228.693, 417.079 1219.286 C 429.314 1207.745, 432 1200.299, 432 1177.926 C 432 1156.107, 433.884 1148.957, 442.092 1139.632 C 449.725 1130.961, 461.042 1125.749, 475.753 1124.130 C 490.332 1122.525, 505.225 1125.745, 511.708 1131.903 C 515.646 1135.643, 515.200 1134.141, 510.328 1127.250 C 494.536 1104.917, 469.750 1078.387, 458.915 1072.221 C 453.269 1069.007, 441.536 1065.916, 435.685 1066.100 C 433.933 1066.156, 429.611 1066.833, 426.081 1067.605 M 634.828 1118.500 C 639.607 1126.851, 641.318 1132.783, 641.758 1142.526 C 642.447 1157.805, 638.568 1168.166, 630.240 1173.287 C 623.551 1177.400, 616.936 1178.417, 597 1178.397 C 580.703 1178.380, 577.488 1178.098, 570 1176.030 C 555.613 1172.056, 548.445 1168.212, 539.012 1159.415 L 530.524 1151.500 537.262 1158.961 C 540.968 1163.064, 544 1166.818, 544 1167.302 C 544 1167.787, 545.811 1170.280, 548.024 1172.842 C 550.237 1175.404, 554.317 1180.425, 557.090 1184 C 564.415 1193.441, 595.605 1225.550, 600.785 1228.981 C 607.837 1233.652, 617.743 1235.371, 633.367 1234.633 C 640.590 1234.293, 649.329 1233.730, 652.786 1233.384 C 657.946 1232.867, 659.414 1233.065, 660.988 1234.489 C 662.824 1236.150, 662.926 1236.124, 663.392 1233.862 C 663.659 1232.563, 664.147 1226.237, 664.476 1219.805 C 664.806 1213.373, 665.775 1205.723, 666.631 1202.805 C 669.922 1191.583, 678.337 1180.963, 685.117 1179.474 C 687.785 1178.888, 689.241 1177, 687.026 1177 C 686.490 1177, 685.300 1175.537, 684.382 1173.750 C 682.686 1170.450, 678.472 1165.421, 665 1150.618 C 660.875 1146.085, 654.092 1138.313, 649.927 1133.346 C 642.258 1124.200, 632.728 1114.829, 634.828 1118.500" stroke="none" fill="#071015" fill-rule="evenodd"/><path d="M 316.500 703.605 C 300.759 707.059, 295.788 709.247, 288.763 715.818 C 283.066 721.147, 280.796 725.138, 278.565 733.750 C 277.134 739.270, 277.002 760.173, 277.238 943.690 C 277.498 1145.626, 277.518 1147.527, 279.500 1150.461 C 280.600 1152.090, 280.938 1153.076, 280.250 1152.652 C 279.549 1152.220, 279 1152.352, 279 1152.952 C 279 1154.542, 283.083 1162.933, 284.190 1163.617 C 284.716 1163.943, 284.214 1162.380, 283.074 1160.144 C 281.933 1157.909, 281 1155.541, 281 1154.883 C 281 1154.224, 282.047 1155.669, 283.326 1158.093 C 288.094 1167.127, 297.912 1171.753, 318.500 1174.666 C 331.878 1176.558, 349.135 1175.998, 356.500 1173.432 C 374.047 1167.317, 384.479 1150.431, 389.511 1120 C 393.884 1093.553, 396.436 1086.511, 404.609 1078.338 C 410.062 1072.886, 416.965 1069.588, 427.546 1067.381 C 434.294 1065.974, 436.637 1065.902, 443 1066.910 C 454.829 1068.783, 461.733 1072.802, 474.754 1085.394 C 489.345 1099.504, 517.234 1134, 514.051 1134 C 513.473 1134, 512.986 1133.662, 512.969 1133.250 C 512.951 1132.838, 511.714 1131.642, 510.219 1130.593 C 508.723 1129.544, 512.450 1133.823, 518.500 1140.102 C 524.550 1146.381, 532.650 1154.929, 536.500 1159.098 C 540.350 1163.267, 542.611 1165.513, 541.524 1164.089 C 540.438 1162.665, 537.513 1159.275, 535.024 1156.556 C 532.206 1153.476, 533.705 1154.575, 539 1159.471 C 548.442 1168.202, 555.703 1172.080, 570 1176.030 C 577.488 1178.098, 580.703 1178.380, 597 1178.397 C 616.936 1178.417, 623.551 1177.400, 630.240 1173.287 C 638.568 1168.166, 642.447 1157.805, 641.758 1142.526 C 641.318 1132.791, 639.750 1127.324, 634.866 1118.500 C 634.220 1117.333, 635.342 1117.957, 637.561 1120 L 641.364 1123.500 637.958 1119 C 636.085 1116.525, 634.315 1114.275, 634.026 1114 C 633.737 1113.725, 633.050 1112.729, 632.500 1111.787 C 631.950 1110.844, 627.967 1104.903, 623.649 1098.584 C 619.330 1092.265, 615.187 1085.386, 614.442 1083.298 C 613.697 1081.209, 613.068 1080.063, 613.044 1080.750 C 612.962 1083.079, 610.020 1082.016, 606.129 1078.250 C 603.997 1076.188, 597.531 1069.100, 591.759 1062.500 C 585.988 1055.900, 576.041 1045.100, 569.656 1038.500 C 563.271 1031.900, 558.036 1026.210, 558.023 1025.855 C 558.010 1025.500, 560.138 1024.091, 562.750 1022.724 C 579.056 1014.192, 604.078 995.431, 614.563 983.876 C 617.910 980.187, 627.763 966.436, 632.762 958.478 C 640.657 945.908, 649.582 922.772, 652.427 907.500 C 653.349 902.550, 654.531 896.613, 655.052 894.307 C 656.310 888.742, 656.270 853.451, 654.998 847.326 C 654.446 844.672, 653.075 838, 651.951 832.500 C 649.153 818.815, 645.796 808.539, 641.025 799.050 C 636.776 790.599, 636.389 789.504, 638 790.500 C 640.094 791.794, 638.750 789.788, 630.835 779.801 C 610.023 753.543, 598.034 742.275, 578.212 730.348 C 561.129 720.069, 531.813 709.225, 514.500 706.781 C 501.540 704.952, 323.389 702.094, 316.500 703.605 M 1042.500 704.207 C 1034.800 704.687, 1025.852 705.586, 1022.616 706.205 C 1015.253 707.613, 1008.238 712.205, 1005.306 717.536 C 1000.311 726.618, 1000 730.165, 1000 778.139 C 1000 815.275, 999.761 823.096, 998.591 824.266 C 997.731 825.126, 997.506 826.201, 998.014 827.023 C 999.571 829.542, 1000.242 840.354, 1001.764 887.453 C 1003.770 949.512, 1003.740 965.525, 1001.611 967.877 C 999.726 969.960, 999.536 971.679, 1001.131 972.210 C 1001.789 972.430, 1002.585 976.544, 1003.034 982.044 C 1004.338 998.038, 1007.670 1020.001, 1010.386 1030.500 C 1011.809 1036, 1013.499 1042.525, 1014.143 1045 C 1017.176 1056.658, 1023.827 1074.588, 1029.051 1085.193 C 1034.022 1095.282, 1038.224 1101.977, 1049.805 1118.259 C 1052.921 1122.640, 1055.889 1125.344, 1053.088 1121.250 C 1050.377 1117.288, 1051.723 1116.969, 1055.194 1120.750 C 1071.505 1138.519, 1092.752 1154.248, 1114.227 1164.453 C 1129.255 1171.594, 1137.692 1174.419, 1155.002 1178.104 C 1167.478 1180.760, 1172.272 1181.265, 1189.377 1181.725 C 1208.360 1182.237, 1225.108 1181.195, 1234 1178.949 C 1235.925 1178.463, 1240.425 1177.380, 1244 1176.541 C 1280.944 1167.878, 1313.556 1149.115, 1338.520 1122.160 C 1353.165 1106.347, 1357.865 1099.862, 1366.438 1083.642 C 1386.153 1046.343, 1393.295 1005.509, 1388.064 960 C 1385.855 940.791, 1378.415 915.671, 1369.992 898.983 C 1366.772 892.605, 1366.444 891.539, 1368 892.500 C 1370.183 893.849, 1368.769 891.502, 1364.166 886.136 C 1361.507 883.036, 1358.220 878.837, 1356.861 876.805 C 1348.331 864.048, 1329.480 845.031, 1315.621 835.202 C 1308.572 830.203, 1283.340 815, 1282.092 815 C 1281.327 815, 1276.236 812.941, 1268.500 809.503 C 1250.803 801.638, 1233.551 798.795, 1203.833 798.848 C 1182.901 798.886, 1181.769 798.991, 1170.481 801.963 C 1164.054 803.655, 1157.971 805.480, 1156.964 806.019 C 1154.231 807.482, 1151.891 807.211, 1150.308 805.250 C 1149.008 803.639, 1148.946 803.680, 1149.522 805.770 C 1150.052 807.693, 1149.563 808.283, 1146.324 809.628 C 1137.428 813.322, 1129.851 817.227, 1119.570 823.418 C 1113.558 827.038, 1108.270 830, 1107.820 830 C 1107.369 830, 1107 816.692, 1107 800.428 C 1107 772.759, 1105.262 742.132, 1103.003 730.001 C 1102.542 727.526, 1102.350 725.316, 1102.576 725.090 C 1102.803 724.864, 1104.003 725.535, 1105.244 726.582 L 1107.500 728.486 1105.333 725.993 C 1104.141 724.622, 1101.441 720.954, 1099.333 717.843 C 1094.690 710.990, 1088.181 705.422, 1083.193 704.037 C 1078.981 702.867, 1062.937 702.934, 1042.500 704.207 M 1723.500 800.142 C 1720.200 800.636, 1710.678 801.644, 1702.340 802.380 C 1688.505 803.603, 1686.758 803.979, 1682.340 806.688 C 1675.939 810.614, 1671.513 816.600, 1669.004 824.724 C 1665.793 835.119, 1665.030 856.999, 1665.014 939.090 C 1665.001 1010.013, 1664.903 1014.059, 1663.029 1021.386 C 1657.741 1042.063, 1645.710 1055.872, 1625.849 1064.062 C 1618.831 1066.956, 1618.445 1067, 1599.900 1067 C 1583.232 1067, 1580.433 1066.760, 1575.469 1064.902 C 1572.385 1063.749, 1569.620 1062.174, 1569.324 1061.402 C 1568.481 1059.206, 1566.789 1059.761, 1567.500 1062 C 1568.273 1064.436, 1568.577 1064.435, 1561.565 1062.022 C 1554.926 1059.738, 1544.169 1052.399, 1540.600 1047.719 C 1534.503 1039.724, 1528.856 1024.437, 1527.404 1012 C 1526.987 1008.425, 1526.604 972.200, 1526.554 931.500 C 1526.464 858.986, 1526.157 850.120, 1522.959 827.699 C 1522.426 823.959, 1521.027 819.013, 1519.851 816.708 C 1518.192 813.456, 1518.081 812.823, 1519.356 813.881 C 1523.007 816.911, 1520.685 813.119, 1516.250 808.808 C 1508.286 801.068, 1505.335 799.997, 1492.015 800.018 C 1485.682 800.028, 1476.450 800.489, 1471.500 801.043 C 1466.550 801.597, 1458.225 802.417, 1453 802.866 C 1432.179 804.655, 1423.106 813.622, 1420.076 835.406 C 1419.406 840.227, 1419 865.754, 1419 903.104 C 1419 951.771, 1418.752 963.158, 1417.683 963.568 C 1416.301 964.098, 1416.753 970.801, 1418.984 982.869 C 1419.543 985.893, 1420.003 998.522, 1420.006 1010.934 C 1420.014 1040.457, 1422.205 1054.914, 1429.871 1076 C 1431.570 1080.675, 1432.969 1085.499, 1432.980 1086.721 C 1432.991 1087.942, 1434.284 1090.867, 1435.853 1093.221 C 1437.422 1095.574, 1440.009 1099.525, 1441.603 1102 C 1443.196 1104.475, 1444.859 1106.950, 1445.297 1107.500 C 1445.736 1108.050, 1447.779 1110.783, 1449.839 1113.572 C 1459.734 1126.979, 1477.030 1146.660, 1476.977 1144.452 C 1476.965 1143.928, 1473.141 1139.486, 1468.480 1134.581 C 1463.819 1129.675, 1460.228 1125.438, 1460.501 1125.166 C 1460.773 1124.894, 1466.118 1129.734, 1472.378 1135.922 C 1491.402 1154.730, 1506.802 1164.263, 1531.500 1172.524 C 1553.004 1179.716, 1584.200 1183.249, 1607 1181.074 C 1652.915 1176.695, 1692.870 1158.285, 1722.566 1127.825 C 1750.689 1098.980, 1764.748 1070.956, 1771.140 1031 C 1773.089 1018.816, 1773.138 837.903, 1771.194 830.587 C 1770.476 827.884, 1768.171 822.230, 1766.070 818.021 C 1763.970 813.812, 1761.943 809.273, 1761.566 807.934 C 1760.933 805.688, 1761.116 805.752, 1763.940 808.766 C 1765.623 810.562, 1767 811.620, 1767 811.116 C 1767 809.211, 1756.036 800.257, 1752.947 799.639 C 1748.518 798.754, 1730.747 799.057, 1723.500 800.142 M 679.770 801.032 C 673.155 802.146, 667.189 805.723, 663.143 811 C 661.246 813.475, 659.087 815.438, 658.347 815.361 C 657.606 815.285, 657 815.622, 657 816.111 C 657 816.600, 657.450 817, 658 817 C 658.550 817, 659 818.688, 659 820.750 C 659 826.813, 661.808 839.737, 664.564 846.358 C 665.970 849.736, 668.626 856.550, 670.466 861.500 C 672.306 866.450, 677.711 880.175, 682.477 892 C 696.321 926.348, 699.998 936.296, 700.032 939.497 C 700.049 941.149, 700.726 943.376, 701.536 944.448 C 702.347 945.519, 702.748 947.217, 702.429 948.223 C 702.072 949.347, 702.304 949.944, 703.031 949.775 C 703.681 949.624, 705.096 951.162, 706.175 953.193 C 709.207 958.901, 724.263 995.387, 729.100 1008.750 C 730.145 1011.638, 731.861 1016.362, 732.913 1019.250 C 740.062 1038.866, 743.565 1048.705, 743.859 1050 C 744.890 1054.531, 748.191 1061.431, 749.206 1061.179 C 750.144 1060.946, 750.200 1061.163, 749.408 1061.970 C 748.617 1062.777, 749.366 1066.168, 752.129 1074.292 C 754.226 1080.456, 756.293 1085.428, 756.721 1085.340 C 757.149 1085.252, 757.564 1087.052, 757.643 1089.340 C 757.722 1091.628, 758.342 1094.850, 759.021 1096.500 C 760.799 1100.822, 761.387 1122.851, 760.020 1133.981 C 757.296 1156.177, 749.890 1177.166, 743.205 1181.638 C 739.571 1184.069, 726.623 1184.050, 719 1181.603 C 709.535 1178.564, 688 1175.913, 688 1177.786 C 688 1178.366, 686.703 1179.126, 685.117 1179.474 C 678.337 1180.963, 669.922 1191.583, 666.631 1202.805 C 665.775 1205.723, 664.806 1213.373, 664.476 1219.805 C 663.806 1232.909, 663.305 1236.307, 662.150 1235.593 C 660.823 1234.772, 663.690 1250.175, 665.857 1255.500 C 666.976 1258.250, 667.915 1259.881, 667.945 1259.123 C 667.975 1258.366, 669.688 1260.061, 671.750 1262.890 C 674.295 1266.380, 677.152 1268.851, 680.642 1270.581 C 689.705 1275.072, 698.344 1275.927, 735.060 1275.965 C 766.052 1275.997, 769.263 1275.837, 777.031 1273.873 C 805.017 1266.796, 819.560 1250.579, 836.909 1207.106 C 840.773 1197.423, 846.687 1182.750, 850.050 1174.500 C 866.005 1135.366, 876.350 1109.728, 888.988 1078 C 896.546 1059.025, 911.972 1020.550, 923.268 992.500 C 986.719 834.935, 982.182 846.864, 984.506 831.500 C 987.274 813.201, 987.667 815.577, 980.703 808.486 C 976.067 803.765, 973.389 801.875, 970.100 801.006 C 967.091 800.210, 956.656 799.946, 937.100 800.171 L 908.500 800.500 901.500 803.919 C 889.958 809.557, 883.366 817.598, 873.147 838.500 C 871.264 842.350, 868.632 848.425, 867.298 852 C 865.963 855.575, 861.700 866.600, 857.825 876.500 C 849.884 896.788, 844.653 910.430, 839.900 923.250 C 838.108 928.084, 836.076 932, 835.360 932 C 834.646 932, 834.304 932.630, 834.600 933.400 C 835.294 935.207, 831.695 946.970, 824.319 967 C 823.829 968.333, 823.710 968.333, 823.254 967 C 822.972 966.175, 821.835 963.475, 820.728 961 C 819.621 958.525, 816.039 949.075, 812.767 940 C 798.521 900.480, 788.511 872.393, 783.367 857.500 C 780.327 848.700, 777.461 840.600, 776.998 839.500 C 776.535 838.400, 775.878 836.225, 775.538 834.666 C 775.070 832.520, 775.233 832.013, 776.210 832.577 C 776.919 832.987, 776.600 832.237, 775.500 830.911 C 774.400 829.585, 772.381 826.250, 771.012 823.500 C 765.728 812.879, 752.625 803.340, 740.114 801.005 C 733.851 799.837, 686.744 799.857, 679.770 801.032 M 413.500 809.715 C 407.927 810.485, 398.642 813.142, 394.965 815.018 C 390.097 817.501, 385.311 823.104, 384.101 827.737 C 383.330 830.693, 382.371 947.168, 382.904 973.178 L 383 977.857 388.250 979.006 C 391.137 979.639, 396.425 980.009, 400 979.828 C 406.379 979.506, 406.507 979.444, 406.896 976.500 C 407.286 973.554, 407.304 973.545, 407.937 976 C 408.507 978.213, 409.185 978.535, 413.841 978.804 C 418.917 979.097, 424.545 977.788, 439.500 972.833 C 458.228 966.628, 495.344 946.454, 514.500 932.066 C 525.696 923.658, 530 919.649, 530 917.630 C 530 916.691, 530.566 916.280, 531.412 916.605 C 532.895 917.174, 539.333 909.337, 542.454 903.164 C 548.418 891.366, 548.243 867.158, 542.076 850.867 C 539.064 842.911, 530.920 831.759, 524.681 827.049 C 512.650 817.966, 494.031 811.342, 476.750 809.998 C 464.890 809.076, 419.588 808.873, 413.500 809.715 M 1182.913 912.397 C 1182.590 912.733, 1179.665 913.480, 1176.413 914.057 C 1173.061 914.653, 1165.539 917.516, 1159.046 920.668 C 1148.726 925.678, 1146.695 927.134, 1138.536 935.364 C 1131.269 942.695, 1128.653 946.180, 1125.297 953 C 1122.997 957.675, 1120.368 964.650, 1119.455 968.500 C 1118.542 972.350, 1117.328 977.162, 1116.757 979.192 C 1115.519 983.591, 1117.244 1006.542, 1119.431 1014.775 C 1121.216 1021.495, 1127.211 1033.329, 1131.450 1038.500 C 1144.496 1054.415, 1163.352 1065.953, 1176.372 1065.989 C 1179.702 1065.998, 1180.070 1065.790, 1179 1064.500 C 1178.315 1063.675, 1178.098 1063, 1178.517 1063 C 1178.937 1063, 1179.854 1063.787, 1180.557 1064.750 C 1181.677 1066.283, 1184.071 1066.539, 1199.883 1066.813 L 1217.930 1067.125 1228.715 1062.430 C 1256.346 1050.400, 1263.552 1043.825, 1272.842 1022.162 C 1274.652 1017.941, 1275.243 1014.281, 1275.667 1004.662 C 1275.963 997.956, 1275.757 990.593, 1275.208 988.250 C 1274.641 985.829, 1274.597 984, 1275.106 984 C 1277.670 984, 1274.549 966.941, 1270.354 958.020 C 1265.255 947.177, 1253.786 933.761, 1243.691 926.833 C 1236.361 921.802, 1225.267 916.546, 1217.500 914.425 C 1211.514 912.790, 1184.081 911.182, 1182.913 912.397 M 1480.250 1149.250 C 1481.628 1151.037, 1483.278 1152.500, 1483.915 1152.500 C 1484.552 1152.500, 1485.404 1153.035, 1485.808 1153.690 C 1486.737 1155.193, 1494 1160.163, 1494 1159.296 C 1494 1158.941, 1495.123 1159.707, 1496.496 1160.996 C 1497.869 1162.286, 1499.242 1163.091, 1499.548 1162.786 C 1500.236 1162.097, 1492.957 1156, 1491.446 1156 C 1490.843 1156, 1489.292 1154.875, 1488 1153.500 C 1486.708 1152.125, 1485.087 1151, 1484.398 1151 C 1483.709 1151, 1482.260 1149.875, 1481.179 1148.500 C 1480.097 1147.125, 1478.882 1146, 1478.478 1146 C 1478.074 1146, 1478.872 1147.463, 1480.250 1149.250" stroke="none" fill="#2eaeb7" fill-rule="evenodd"/></svg>